<svg viewBox="0 0 48 42" fill="none" xmlns="http://www.w3.org/2000/svg">
<path fill-rule="evenodd" clip-rule="evenodd" d="M44.5714 23.7017C44.5714 27.52 42.0372 30.7237 38.5715 31.8031V35.2799C43.9632 34.1173 48 29.3751 48 23.7017C48 17.1566 42.6274 11.8507 36 11.8507C35.66 11.8507 35.3233 11.8647 34.9905 11.8921C32.5312 4.96628 25.8529 0 18 0C8.05889 0 0 7.95878 0 17.7764C0 25.1963 4.60306 31.5543 11.1429 34.2175V30.4991C6.5591 28.0761 3.42858 23.2983 3.42858 17.7764C3.42858 9.79 9.9773 3.36 18 3.36C24.2116 3.36 29.5396 7.21453 31.6286 12.6616L31.6429 12.6561C32.0391 13.7074 32.3168 14.8166 32.4599 15.9674C33.5408 15.4811 34.7401 15.2107 36 15.2107C40.709 15.2107 44.5714 18.9878 44.5714 23.7017ZM36.0001 25.2H18.8572V28.56H36.0001V25.2ZM32.5715 31.92H15.4286V35.28H32.5715V31.92ZM18.8572 38.64H36.0001V42H18.8572V38.64Z" fill="white"/>
</svg>
