<svg viewBox="0 0 48 44" fill="none" xmlns="http://www.w3.org/2000/svg">
<path d="M40 33.1594C42.1025 32.2386 43.8242 30.6225 44.8762 28.5825C45.9281 26.5425 46.2463 24.2026 45.7772 21.9558C45.3081 19.7089 44.0804 17.6919 42.3001 16.2431C40.5198 14.7943 38.2953 14.0021 36 13.9994H33.48C32.846 11.5445 31.6377 9.27532 29.9546 7.37903C28.2715 5.48273 26.1619 4.01358 23.7995 3.09267C21.4372 2.17176 18.8898 1.82546 16.3674 2.08231C13.8449 2.33917 11.4196 3.19182 9.29139 4.56999C7.16316 5.94816 5.39293 7.81239 4.12661 10.009C2.8603 12.2056 2.13415 14.6718 2.00803 17.2041C1.88191 19.7365 2.35942 22.2626 3.40121 24.5741C4.44301 26.8857 6.01924 28.9166 8.00001 30.4994M16 29.9994H16.02M16 37.9994H16.02M24 33.9994H24.02M24 41.9994H24.02M32 29.9994H32.02M32 37.9994H32.02" stroke="white" stroke-width="4" stroke-linecap="round" stroke-linejoin="round"/>
</svg>
